PathFileType	4	(X/Y/Z)	C:/Users/opensim2020/Desktop/walking_exp_matlab/subject02_walking15_straight_01.trc																																																																																																																												
DataRate	CameraRate	NumFrames	NumMarkers	Units	OrigDataRate	OrigDataStartFrame	OrigNumFrames																																																																																																																								
100	100	5	42	mm	100	470	165																																																																																																																								
Frame#	Time	LFHD			RFHD			LBHD			RBHD			C7			T10			CLAV			STRN			RBAK			LSHO			LUPA			LELB			LFRM			LWRA			LWRB			LFIN			RSHO			RUPA			RELB			RFRM			RWRA			RWRB			RFIN			LASI			RASI			LPSI			RPSI			LTHI			LKNE			LTIB			LANK			LHEE			LTOE			RTHI			RKNE			RTIB			RANK			RHEE			RTOE			*39			*40			*41		
		X1	Y1	Z1	X2	Y2	Z2	X3	Y3	Z3	X4	Y4	Z4	X5	Y5	Z5	X6	Y6	Z6	X7	Y7	Z7	X8	Y8	Z8	X9	Y9	Z9	X10	Y10	Z10	X11	Y11	Z11	X12	Y12	Z12	X13	Y13	Z13	X14	Y14	Z14	X15	Y15	Z15	X16	Y16	Z16	X17	Y17	Z17	X18	Y18	Z18	X19	Y19	Z19	X20	Y20	Z20	X21	Y21	Z21	X22	Y22	Z22	X23	Y23	Z23	X24	Y24	Z24	X25	Y25	Z25	X26	Y26	Z26	X27	Y27	Z27	X28	Y28	Z28	X29	Y29	Z29	X30	Y30	Z30	X31	Y31	Z31	X32	Y32	Z32	X33	Y33	Z33	X34	Y34	Z34	X35	Y35	Z35	X36	Y36	Z36	X37	Y37	Z37	X38	Y38	Z38	X39	Y39	Z39	X40	Y40	Z40	X41	Y41	Z41	X42	Y42	Z42
																																																																																																																															
83	0.82	-295.64551	1717.22229	1513.37708	-301.98276	1697.91846	1656.66418	-427.35715	1644.72302	1498.90576	-445.7341	1623.8175	1640.00916	-486.61703	1505.25671	1566.95764	-548.7807	1232.25586	1576.49133	-351.13385	1433.07104	1557.5238	-306.05566	1258.34314	1557.37805	-554.07721	1331.4314	1625.76184	-412.80591	1485.08936	1392.47498	-378.51642	1301.40112	1294.5321	-328.43149	1166.93567	1269.14795	-229.35307	1075.43237	1279.88818	-112.96788	1031.99634	1342.12427	-136.80519	998.75647	1303.5647	-77.44632	972.0202	1311.78369	-420.05469	1466.14038	1752.98633	-495.22537	1291.28528	1831.25684	-512.17682	1147.45325	1858.7738	-505.12189	1028.19641	1885.71997	-474.22385	894.93243	1875.20337	-523.94965	899.81879	1901.78088	-497.11737	832.77771	1909.86633	-364.75226	960.40503	1413.39661	-311.86905	955.04376	1665.72742	-550.2785	1014.34381	1535.80127	-533.30316	1012.87207	1647.31433	-490.31024	655.58197	1397.74194	-554.97839	464.15033	1444.29932	-656.08063	297.09103	1460.83569	-701.0108	79.37138	1509.64294	-736.63812	57.77005	1564.93506	-552.14978	29.83959	1481.65613	-326.23041	663.47095	1765.64282	-247.57458	471.14929	1726.5968	-209.62531	289.8223	1745.41101	-144.05165	103.8633	1721.81384	-153.73672	37.84476	1668.71631	18.93473	109.38998	1723.58118	-399.66449	1783.57751	1599.54333	2845.2915	1034.30481	-3360.33691	NaN	NaN	NaN
84	0.83	-282.97815	1715.25989	1513.61084	-289.0806	1696.25964	1656.94153	-414.56265	1642.59058	1499.45227	-432.83978	1622.09253	1640.68433	-473.77811	1503.24146	1567.9812	-535.63953	1230.17786	1577.99451	-338.21066	1431.18372	1558.37964	-292.91052	1256.54883	1558.1842	-541.03058	1329.34412	1626.97644	-400.25638	1483.07935	1393.29272	-365.35843	1300.20007	1294.90857	-314.14838	1166.21997	1268.13574	-211.78459	1077.84485	1280.20386	-93.74978	1039.87122	1342.0802	-117.00949	1005.23065	1304.5105	-55.69559	980.89496	1312.9585	-406.95557	1464.16174	1753.9043	-483.03415	1290.06055	1832.34131	-501.1958	1146.3739	1859.7533	-495.78955	1027.04688	1886.74768	-466.39615	893.29297	1876.76196	-516.2146	898.9502	1902.9762	-490.24774	831.68689	1911.45203	-352.01251	958.617	1413.7655	-297.6416	953.36658	1665.83276	-536.90552	1011.9917	1537.92371	-519.0058	1010.65564	1649.33496	-479.38577	654.52344	1398.04041	-546.25714	464.10574	1444.15186	-650.15033	298.91226	1460.77881	-699.78156	82.02525	1509.24512	-735.84656	61.64153	1564.77454	-552.09808	29.85288	1481.52222	-311.97946	662.2511	1766.01782	-231.94083	469.90405	1726.13831	-192.78999	288.66214	1745.2207	-126.26863	103.20729	1721.09973	-136.1021	37.47721	1668.47522	37.04013	109.69779	1721.35986	-386.75131	1781.90198	1600.02161	2846.02222	1034.65454	-3357.23706	NaN	NaN	NaN
85	0.84	-270.25485	1713.43274	1513.89697	-276.11594	1694.73181	1657.29932	-401.81906	1640.60254	1500.15308	-419.84818	1620.49609	1641.44592	-460.88275	1501.35388	1569.13208	-522.2981	1228.16394	1579.52771	-325.26599	1429.43921	1559.328	-279.6889	1254.93677	1559.06311	-527.99091	1327.49683	1628.43298	-387.74481	1481.15552	1394.2926	-352.37561	1298.82458	1295.47717	-299.64899	1165.38367	1268.35168	-195.08676	1080.91345	1280.44385	-75.20553	1047.87512	1342.19189	-97.92696	1011.19464	1305.09448	-35.72826	989.51031	1313.59106	-394.06317	1462.32605	1754.77039	-470.94565	1288.59937	1833.0249	-490.03619	1145.229	1860.58594	-486.01178	1025.85083	1887.81018	-458.07605	891.78491	1878.28516	-507.98645	898.14545	1904.21582	-482.81387	830.68646	1913.0531	-338.80585	956.87744	1414.29187	-283.20401	951.97931	1666.00488	-522.81073	1009.5827	1539.974	-504.5705	1008.8045	1651.37817	-468.65109	653.75665	1398.06323	-536.65149	464.01309	1444.06201	-643.58685	300.94077	1460.71082	-698.36975	85.14682	1508.83105	-734.78271	65.41048	1564.06482	-551.95715	29.73293	1481.26318	-294.59665	661.64075	1766.25098	-214.87799	469.21921	1726.35034	-176.82367	287.46481	1745.02368	-111.68633	101.87337	1720.63782	-122.51917	35.77086	1668.17126	51.22894	107.67495	1719.13171	-373.92102	1780.21204	1600.34412	2845.97412	1034.5304	-3357.21899	NaN	NaN	NaN
86	0.85	-257.55759	1711.67896	1514.28149	-263.11838	1693.34802	1657.67212	-389.17084	1638.87964	1501.03101	-406.76315	1618.88562	1642.29016	-447.92804	1499.58032	1570.40649	-508.77112	1226.15137	1581.01599	-312.19861	1427.83032	1560.39404	-266.3699	1253.44739	1560.09546	-514.70709	1325.67407	1629.94409	-375.27383	1479.36035	1395.39807	-339.64615	1297.32251	1296.1958	-286.26489	1164.41821	1268.10986	-178.88902	1083.38733	1280.74414	-57.9538	1055.21301	1342.06238	-79.57442	1017.12195	1305.87671	-16.98046	998.0517	1314.05261	-380.9285	1460.62134	1755.84521	-458.29666	1287.52197	1834.3634	-478.67804	1144.00623	1861.255	-475.85855	1024.84875	1889.0061	-449.11707	890.52917	1880.05481	-499.29056	897.39862	1905.44421	-474.86026	829.54724	1914.82483	-325.27039	955.16333	1414.80359	-268.46573	950.90826	1666.38184	-508.63904	1007.42303	1541.95142	-489.87701	1007.16229	1653.29602	-456.44534	653.00958	1398.55237	-526.45044	463.93567	1444.11194	-636.74738	303.34317	1460.7168	-696.69946	88.70926	1508.37646	-733.4162	70.05858	1563.66406	-551.91571	29.77095	1481.0415	-275.36404	660.84631	1766.64111	-197.8	468.45694	1725.93738	-162.06593	286.08246	1744.64868	-100.52746	99.56062	1719.84265	-112.58627	33.06494	1667.41199	62.14465	103.36081	1717.07654	-361.06763	1778.67651	1600.6958	2845.9021	1034.31128	-3357.25586	NaN	NaN	NaN
87	0.86	-244.85229	1710.09033	1514.69373	-250.12523	1692.10242	1658.19617	-376.54269	1637.22742	1501.93787	-393.93604	1617.91309	1643.32129	-434.98505	1497.94861	1571.7594	-495.10809	1224.2793	1582.55664	-299.10806	1426.43152	1561.61816	-252.86703	1252.2124	1561.35522	-501.27084	1323.49866	1631.10974	-362.82117	1477.77258	1396.68591	-327.49594	1296.34924	1297.13391	-272.86557	1163.67737	1268.40771	-163.88342	1085.78235	1281.0957	-41.66241	1062.02161	1341.745	-62.18933	1022.80811	1306.53894	1.52666	1005.92755	1314.65295	-367.44394	1459.34448	1757.52026	-445.84128	1286.21069	1835.30896	-466.57596	1143.14905	1862.44275	-465.14636	1023.88367	1890.07153	-439.84607	889.3421	1881.74402	-490.05276	896.7229	1906.74231	-466.52206	828.70789	1916.38574	-311.13553	953.62317	1415.50403	-253.28589	950.19366	1667.05688	-493.90927	1005.33185	1543.78259	-474.99402	1005.74445	1655.12415	-444.05295	652.07373	1398.75488	-515.47821	463.99722	1444.18152	-629.51239	306.07813	1460.84216	-694.79706	92.83411	1507.92358	-731.85046	75.66654	1563.17834	-551.74921	29.62348	1480.78857	-254.51871	660.96667	1767.18518	-180.4225	467.77322	1725.87573	-148.58817	284.40616	1744.27661	-91.99702	96.53262	1718.86926	-106.15376	30.22485	1666.39246	70.28172	96.94085	1715.13623	-348.39307	1777.1449	1601.03223	2845.96313	1034.41382	-3357.27808	NaN	NaN	NaN
